PathFileType	4	(X/Y/Z)	./resultDataOpenSim/trcMotMarkerGrf/sub06/qtm-03-05.trc
DataRate	CameraRate	NumFrames	NumMarkers	Units	OrigDataRate	OrigDataStartFrame	OrigNumFrames
250.000000	250.000000	8	24	m	250.000000	1	518
Frame#	Time	L.Toe.Tip			R.Toe.Tip			L.Ankle.Lat			R.Ankle.Lat			L.Ankle.Med			R.Ankle.Med			L.Heel			R.Heel			L.Knee.Lat			R.Knee.Lat			L.Knee.Med			R.Knee.Med			L.Thigh.Upper			R.Thigh.Upper			L.ASIS			R.ASIS			V.Sacral			L.Acromium			R.Acromium			C7			L.Elbow			R.Elbow			L.Wrist.Lat			R.Wrist.Lat
		X1	Y1	Z1	X2	Y2	Z2	X3	Y3	Z3	X4	Y4	Z4	X5	Y5	Z5	X6	Y6	Z6	X7	Y7	Z7	X8	Y8	Z8	X9	Y9	Z9	X10	Y10	Z10	X11	Y11	Z11	X12	Y12	Z12	X13	Y13	Z13	X14	Y14	Z14	X15	Y15	Z15	X16	Y16	Z16	X17	Y17	Z17	X18	Y18	Z18	X19	Y19	Z19	X20	Y20	Z20	X21	Y21	Z21	X22	Y22	Z22	X23	Y23	Z23	X24	Y24	Z24

1	0	-1.5798452	0.032489551	-0.072424517	-0.99471819	0.096801142	0.14336265	-1.7002954	0.073192203	-0.08744832	-1.1252807	0.081082408	0.14857769	-1.6923511	0.086016714	-0.003287275	-1.1091155	0.11173099	0.065837138	NaN	NaN	NaN	-1.1623331	0.042459856	0.073763813	-1.548522	0.41145235	-0.10462483	-1.2392741	0.45366366	0.1539708	-1.5633826	0.41411484	0.015305819	-1.2451045	0.43301892	0.026306086	-1.4451637	0.78544436	-0.16550163	-1.429976	0.77772513	0.18251624	-1.3601426	0.82424746	-0.12556903	-1.3399632	0.82878259	0.12017351	-1.5285749	0.90836509	0.018760697	-1.3739295	1.3142794	-0.1694345	-1.3892986	1.2939721	0.19289491	-1.4548471	1.3464999	0.010272265	-1.3761197	0.99196291	-0.24694657	-1.526908	1.0047709	0.23359317	-1.1609075	0.86882026	-0.20629739	-1.4235456	0.78535486	0.26641471
2	0.004	-1.5800597	0.032478606	-0.072237061	-0.98127724	0.10115499	0.14266203	-1.6998683	0.073658393	-0.087375943	-1.1124884	0.081883824	0.1489885	-1.6923904	0.086381901	-0.003157524	-1.0970572	0.11267164	0.066206043	NaN	NaN	NaN	-1.148709	0.042274212	0.074589967	-1.5450463	0.41054294	-0.10456046	-1.2313633	0.45258024	0.15410764	-1.5592972	0.41325937	0.015483715	-1.2384571	0.4311348	0.025624161	-1.4403666	0.78384879	-0.16542646	-1.4232255	0.77574182	0.1828898	-1.3546398	0.82247253	-0.1254916	-1.3335678	0.82695349	0.12028646	-1.5226565	0.90723256	0.019775043	-1.3681509	1.3125083	-0.16902702	-1.3836434	1.2920601	0.19341161	-1.4489779	1.3449326	0.010798062	-1.3689064	0.98996623	-0.24636786	-1.521741	1.0028067	0.23364576	-1.1531465	0.86849919	-0.20489836	-1.418596	0.78335066	0.26682514
3	0.008	-1.5803641	0.032446198	-0.071952308	-0.96863531	0.10508022	0.14231154	-1.6994113	0.074157693	-0.08731482	-1.1001382	0.082614901	0.14930412	-1.6924081	0.086820208	-0.0030285526	-1.0853397	0.11353759	0.066480138	NaN	NaN	NaN	-1.1354679	0.042070402	0.075224352	-1.5414832	0.4096393	-0.1044612	-1.2235505	0.45152452	0.15422492	-1.5552483	0.41234697	0.015654197	-1.2317752	0.42933879	0.025009197	-1.4354786	0.78226474	-0.1651843	-1.4161791	0.77383068	0.18329734	-1.3491013	0.8207184	-0.12536056	-1.3271052	0.82516693	0.12042	-1.516997	0.90613131	0.020636875	-1.362353	1.3107333	-0.16861406	-1.3780152	1.2901822	0.19394776	-1.4430773	1.3433733	0.011350598	-1.3617319	0.9880146	-0.24581704	-1.5165237	1.0008523	0.23372658	-1.1454146	0.86815343	-0.2034827	-1.4132627	0.78142462	0.26730776
4	0.012	-1.5806473	0.032401688	-0.071670781	-0.95706586	0.10839465	0.14233207	-1.6989214	0.074714827	-0.08726325	-1.0884829	0.083214765	0.1494425	-1.692256	0.087352175	-0.002914603	-1.0741611	0.11427881	0.066602494	NaN	NaN	NaN	-1.1228912	0.041832753	0.075539295	-1.5377768	0.40874413	-0.10431167	-1.2160202	0.45048811	0.15428147	-1.5510544	0.41139251	0.015802004	-1.2250185	0.42768158	0.024507192	-1.4304674	0.78068979	-0.16475813	-1.4087119	0.77202587	0.18376574	-1.3434852	0.81899707	-0.12513396	-1.3205627	0.82342987	0.12057358	-1.5116149	0.90494837	0.021195001	-1.3565118	1.3089625	-0.16817698	-1.3723945	1.2883446	0.19451578	-1.4371338	1.3418129	0.01187975	-1.3545949	0.98611312	-0.24526293	-1.5112162	0.99891408	0.23385472	-1.1377295	0.86776393	-0.20205023	-1.4075844	0.77958229	0.26787163
5	0.016	-1.5807875	0.032363272	-0.071514572	-0.94643939	0.11109701	0.14251681	-1.6984253	0.075344733	-0.087207414	-1.0775758	0.083637645	0.14937299	-1.6917067	0.087953859	-0.002839803	-1.0635926	0.11486661	0.066557816	NaN	NaN	NaN	-1.1111194	0.041545358	0.075523026	-1.5339167	0.40785596	-0.10411509	-1.2088089	0.44946743	0.15428042	-1.5465939	0.41043703	0.015936905	-1.2181664	0.42618188	0.024125851	-1.425361	0.77911987	-0.16422598	-1.4009486	0.77031834	0.18429883	-1.3377783	0.81732083	-0.12481194	-1.3139699	0.82172574	0.12072485	-1.5063077	0.90357409	0.021474135	-1.3506156	1.3072221	-0.16770303	-1.3667488	1.2865463	0.19511616	-1.4311578	1.3402501	0.012342502	-1.3474874	0.98424588	-0.244659	-1.5058078	0.99700062	0.23403837	-1.1301103	0.86732218	-0.20062076	-1.4019226	0.77777192	0.26845502
6	0.02	-1.5808099	0.032333749	-0.071476121	-0.93657243	0.1132031	0.14268299	-1.6979386	0.076057744	-0.087143181	-1.0673526	0.083852739	0.14912056	-1.6906441	0.088610634	-0.0028218454	-1.0536326	0.11527352	0.066348884	NaN	NaN	NaN	-1.100163	0.041195385	0.075244871	-1.5299086	0.40696799	-0.10388863	-1.2017267	0.44848702	0.15427277	-1.5420122	0.40948586	0.016094592	-1.211211	0.42484927	0.023844398	-1.4201845	0.77756012	-0.16364005	-1.3931958	0.76866697	0.1848609	-1.3319947	0.81569998	-0.12444259	-1.3073421	0.82004204	0.12085197	-1.5009028	0.90203718	0.021695025	-1.3446584	1.3055381	-0.16719047	-1.3610524	1.2847997	0.19574451	-1.4251492	1.3387067	0.012775301	-1.3404085	0.98240678	-0.24399723	-1.5002978	0.99512002	0.23428031	-1.1225664	0.86682992	-0.19921517	-1.396495	0.77595514	0.26900088
7	0.024	-1.5807938	0.032307323	-0.071490821	-0.9273605	0.11469584	0.14273763	-1.6974404	0.076857033	-0.08708469	-1.0577446	0.083839893	0.1487271	-1.6892006	0.089347996	-0.0028625671	-1.0442614	0.11546307	0.065985022	NaN	NaN	NaN	-1.0899918	0.040771298	0.074782013	-1.5257554	0.406076	-0.10365374	-1.1945739	0.44757572	0.15428948	-1.5374284	0.40853002	0.016282204	-1.2041588	0.42370027	0.023634037	-1.4149369	0.77602305	-0.16302205	-1.3856426	0.76706347	0.18541499	-1.3261724	0.81412607	-0.12412102	-1.3006747	0.81838131	0.12094971	-1.4953314	0.90045437	0.022108605	-1.3386427	1.3039207	-0.16663525	-1.3552918	1.2831223	0.1963982	-1.4190996	1.3372116	0.013241786	-1.333367	0.9806084	-0.24329703	-1.494685	0.99327948	0.23458243	-1.1151053	0.86629816	-0.19783848	-1.391226	0.77413867	0.26951055
8	0.028	-1.5807813	0.032280422	-0.071513743	-0.91873616	0.11555003	0.1426284	-1.6968861	0.077740594	-0.08705033	-1.0487287	0.083587731	0.14821916	-1.6876948	0.090200633	-0.0029514099	-1.0354686	0.11540037	0.065484234	NaN	NaN	NaN	-1.0805925	0.04024704	0.074194401	-1.5214526	0.40518696	-0.10341664	-1.1872771	0.44674046	0.15431855	-1.5326957	0.40757625	0.016462073	-1.1970284	0.42275759	0.023465182	-1.4096046	0.77452384	-0.16240106	-1.3779806	0.76561328	0.18600831	-1.3203915	0.81256396	-0.12402724	-1.293958	0.81675424	0.12102216	-1.4893968	0.89894864	0.022920198	-1.3325735	1.3023644	-0.16603712	-1.3494677	1.2815179	0.19707511	-1.413008	1.335779	0.013763962	-1.3263711	0.9788668	-0.24256361	-1.4889652	0.99148577	0.23494722	-1.1077343	0.86574236	-0.1964825	-1.3859503	0.7723483	0.27001734
